<svg id="visual" viewBox="0 0 960 540" width="960" height="540" xmlns="http://www.w3.org/2000/svg" xmlns:xlink="http://www.w3.org/1999/xlink" version="1.1"><rect x="0" y="0" width="960" height="540" fill="#B0E1B5"></rect><path d="M0 378L22.8 383.3C45.7 388.7 91.3 399.3 137 397.5C182.7 395.7 228.3 381.3 274 382.5C319.7 383.7 365.3 400.3 411.2 402.3C457 404.3 503 391.7 548.8 388.7C594.7 385.7 640.3 392.3 686 393.5C731.7 394.7 777.3 390.3 823 394.5C868.7 398.7 914.3 411.3 937.2 417.7L960 424L960 541L937.2 541C914.3 541 868.7 541 823 541C777.3 541 731.7 541 686 541C640.3 541 594.7 541 548.8 541C503 541 457 541 411.2 541C365.3 541 319.7 541 274 541C228.3 541 182.7 541 137 541C91.3 541 45.7 541 22.8 541L0 541Z" fill="#f8fadb"></path><path d="M0 395L22.8 396.5C45.7 398 91.3 401 137 408.2C182.7 415.3 228.3 426.7 274 429C319.7 431.3 365.3 424.7 411.2 420.8C457 417 503 416 548.8 413C594.7 410 640.3 405 686 401.3C731.7 397.7 777.3 395.3 823 397.2C868.7 399 914.3 405 937.2 408L960 411L960 541L937.2 541C914.3 541 868.7 541 823 541C777.3 541 731.7 541 686 541C640.3 541 594.7 541 548.8 541C503 541 457 541 411.2 541C365.3 541 319.7 541 274 541C228.3 541 182.7 541 137 541C91.3 541 45.7 541 22.8 541L0 541Z" fill="#e4edca"></path><path d="M0 423L22.8 423.3C45.7 423.7 91.3 424.3 137 431.7C182.7 439 228.3 453 274 456C319.7 459 365.3 451 411.2 450.7C457 450.3 503 457.7 548.8 457C594.7 456.3 640.3 447.7 686 445.2C731.7 442.7 777.3 446.3 823 446.5C868.7 446.7 914.3 443.3 937.2 441.7L960 440L960 541L937.2 541C914.3 541 868.7 541 823 541C777.3 541 731.7 541 686 541C640.3 541 594.7 541 548.8 541C503 541 457 541 411.2 541C365.3 541 319.7 541 274 541C228.3 541 182.7 541 137 541C91.3 541 45.7 541 22.8 541L0 541Z" fill="#cee1bb"></path><path d="M0 480L22.8 477.5C45.7 475 91.3 470 137 471.3C182.7 472.7 228.3 480.3 274 482C319.7 483.7 365.3 479.3 411.2 479.8C457 480.3 503 485.7 548.8 482.8C594.7 480 640.3 469 686 465.3C731.7 461.7 777.3 465.3 823 467.2C868.7 469 914.3 469 937.2 469L960 469L960 541L937.2 541C914.3 541 868.7 541 823 541C777.3 541 731.7 541 686 541C640.3 541 594.7 541 548.8 541C503 541 457 541 411.2 541C365.3 541 319.7 541 274 541C228.3 541 182.7 541 137 541C91.3 541 45.7 541 22.8 541L0 541Z" fill="#b7d5ae"></path><path d="M0 514L22.8 509.8C45.7 505.7 91.3 497.3 137 494.8C182.7 492.3 228.3 495.7 274 498.5C319.7 501.3 365.3 503.7 411.2 506.2C457 508.7 503 511.3 548.8 509.5C594.7 507.7 640.3 501.3 686 497.8C731.7 494.3 777.3 493.7 823 494.5C868.7 495.3 914.3 497.7 937.2 498.8L960 500L960 541L937.2 541C914.3 541 868.7 541 823 541C777.3 541 731.7 541 686 541C640.3 541 594.7 541 548.8 541C503 541 457 541 411.2 541C365.3 541 319.7 541 274 541C228.3 541 182.7 541 137 541C91.3 541 45.7 541 22.8 541L0 541Z" fill="#9ecaa3"></path></svg>