<svg xmlns="http://www.w3.org/2000/svg" version="1.1" xmlns:xlink="http://www.w3.org/1999/xlink" xmlns:svgjs="http://svgjs.com/svgjs" width="1440" height="560" preserveAspectRatio="none" viewBox="0 0 1440 560"><g mask="url(&quot;#SvgjsMask2894&quot;)" fill="none"><rect width="1440" height="560" x="0" y="0" fill="url(#SvgjsLinearGradient2895)"></rect><path d="M0 0L528.07 0L0 156.49z" fill="rgba(255, 255, 255, .1)"></path><path d="M0 156.49L528.07 0L729.6300000000001 0L0 274.48z" fill="rgba(255, 255, 255, .075)"></path><path d="M0 274.48L729.6300000000001 0L958.5200000000001 0L0 396.96000000000004z" fill="rgba(255, 255, 255, .05)"></path><path d="M0 396.96000000000004L958.5200000000001 0L1069.24 0L0 407.14000000000004z" fill="rgba(255, 255, 255, .025)"></path><path d="M1440 560L862.57 560L1440 358.78z" fill="rgba(0, 0, 0, .1)"></path><path d="M1440 358.78L862.57 560L453.08000000000004 560L1440 226.68999999999997z" fill="rgba(0, 0, 0, .075)"></path><path d="M1440 226.69L453.08000000000004 560L421.55000000000007 560L1440 138.88z" fill="rgba(0, 0, 0, .05)"></path><path d="M1440 138.88L421.55000000000007 560L379.3500000000001 560L1440 102.75z" fill="rgba(0, 0, 0, .025)"></path></g><defs><mask id="SvgjsMask2894"><rect width="1440" height="560" fill="#ffffff"></rect></mask><linearGradient x1="15.28%" y1="-39.29%" x2="84.72%" y2="139.29%" gradientUnits="userSpaceOnUse" id="SvgjsLinearGradient2895"><stop stop-color="rgba(241, 243, 209, 1)" offset="0"></stop><stop stop-color="rgba(176, 225, 181, 1)" offset="0"></stop></linearGradient></defs></svg>